PathFileType	4	(X/Y/Z)	/Users/itak/Documents/Research/Walk-IL/dataset/trc/00390_00012.trc
DataRate	CameraRate	NumFrames	NumMarkers	Units	OrigDataRate	OrigDataStartFrame	OrigNumFrames
100.000000	100.000000	4	55	mm	100.000000	220	589
Frame#	Time	LPSI			L3			STRN			T10			C7			CLAV			RBAK			LBAK			LSHO			LUPA			LAEL			LAOL			LWTS			LWPS			LFRA			LIFD			LHPS			LHTS			RSHO			RUPA			RAEL			RAOL			RWTS			RWPS			RFRA			RIFD			RHTS			RHPS			RBHD			LFHD			RFHD			LBHD			LHIP			RHIP			RASI			LASI			LKNE			LTHI			LANK			LTIP			LTOE			LMT5			LHEE			RKNE			RTHI			RANK			RTIP			RTOE			RMT1			RMT5			RHEE			RPSI			LMT1			*53			*54			
		X1	Y1	Z1	X2	Y2	Z2	X3	Y3	Z3	X4	Y4	Z4	X5	Y5	Z5	X6	Y6	Z6	X7	Y7	Z7	X8	Y8	Z8	X9	Y9	Z9	X10	Y10	Z10	X11	Y11	Z11	X12	Y12	Z12	X13	Y13	Z13	X14	Y14	Z14	X15	Y15	Z15	X16	Y16	Z16	X17	Y17	Z17	X18	Y18	Z18	X19	Y19	Z19	X20	Y20	Z20	X21	Y21	Z21	X22	Y22	Z22	X23	Y23	Z23	X24	Y24	Z24	X25	Y25	Z25	X26	Y26	Z26	X27	Y27	Z27	X28	Y28	Z28	X29	Y29	Z29	X30	Y30	Z30	X31	Y31	Z31	X32	Y32	Z32	X33	Y33	Z33	X34	Y34	Z34	X35	Y35	Z35	X36	Y36	Z36	X37	Y37	Z37	X38	Y38	Z38	X39	Y39	Z39	X40	Y40	Z40	X41	Y41	Z41	X42	Y42	Z42	X43	Y43	Z43	X44	Y44	Z44	X45	Y45	Z45	X46	Y46	Z46	X47	Y47	Z47	X48	Y48	Z48	X49	Y49	Z49	X50	Y50	Z50	X51	Y51	Z51	X52	Y52	Z52	X53	Y53	Z53	X54	Y54	Z54	X55	Y55	Z55	

221	2.2	833.7276611328125	972.2318115234375	-82.03129577636719	847.4204711914062	1057.634887695312	-7.139194965362549	1092.048095703125	1212.625	-19.15254211425781	845.1383056640625	1158.899780273438	-6.560634613037109	879.5737915039062	1408.63916015625	-11.30032062530518	1036.7939453125	1330.701049804688	-14.33326244354248	842.490234375	1260.768920898438	57.22259521484375	860.4179077148438	1372.794799804688	-115.1070938110352	946.4505615234375	1388.709350585938	-169.4543151855469	926.4724731445312	1271.962768554688	-239.98828125	966.6600952148438	1076.495971679688	-262.6195983886719	902.6555786132812	1051.286865234375	-210.3636322021484	1077.262329101562	877.4873657226562	-192.894287109375	1046.147827148438	854.9517211914062	-265.8290710449219	999.8612670898438	974.9505004882812	-266.7887573242188	1107.534545898438	702.4375610351562	-191.7881011962891	1071.807495117188	773.9979248046875	-252.3937225341797	1114.87060546875	786.2014770507812	-205.8313903808594	948.2869262695312	1384.769287109375	144.3534088134766	943.5294799804688	1318.095703125	204.0013732910156	974.4129638671875	1058.846435546875	249.6473236083984	943.3612060546875	1042.439697265625	160.64013671875	1132.174194335938	867.510009765625	217.2449493408203	1094.13623046875	850.2905883789062	278.12939453125	1010.44677734375	998.385009765625	262.7266235351562	1163.632934570312	697.912841796875	224.5489196777344	1169.985595703125	769.0620727539062	239.6544799804688	1113.195434570312	762.9096069335938	278.9297180175781	915.6254272460938	1595.397094726562	64.52956390380859	1063.013061523438	1602.434692382812	-67.03395080566406	1048.281005859375	1610.7158203125	53.43162536621094	918.3759765625	1583.710205078125	-96.17259979248047	912.4210205078125	968.3652954101562	-201.7854461669922	944.5064697265625	953.3471069335938	155.8570098876953	1072.386840820312	963.1875610351562	90.78958892822266	1031.84619140625	970.1407470703125	-169.5196838378906	1043.434448242188	482.1668395996094	-195.9738616943359	1010.09375	616.9618530273438	-204.8327789306641	891.4647827148438	48.39286804199219	-184.5230865478516	961.9390258789062	259.12646484375	-204.6829833984375	1104.814697265625	51.05663681030273	-126.5984649658203	1018.251708984375	40.33005905151367	-197.2619476318359	854.69873046875	49.54713821411133	-126.9781799316406	1007.706237792969	465.9967651367188	115.8842239379883	1031.660888671875	731.56787109375	140.0442504882812	982.6322021484375	46.39946365356445	67.42489624023438	1024.097778320312	342.0215454101562	93.89263153076172	1158.997436523438	26.46515083312988	-4.44538688659668	1080.416259765625	31.74725723266602	-31.49659538269043	1066.816772460938	38.52254486083984	66.36156463623047	906.4893188476562	32.20944976806641	18.20098495483398	851.6165161132812	979.8965454101562	50.20988845825195	1027.490966796875	50.72316741943359	-93.88734436035156	nan	nan	nan	nan	nan	nan	
222	2.21	830.1624755859375	972.2113647460938	-81.50633239746094	843.872802734375	1057.539916992188	-6.671769142150879	1088.476318359375	1212.649536132812	-18.71698379516602	841.8565673828125	1158.737060546875	-6.004650592803955	875.755126953125	1408.508544921875	-10.68082141876221	1033.128662109375	1330.73681640625	-13.83851909637451	838.988525390625	1260.491455078125	57.72330474853516	856.7045288085938	1372.777099609375	-114.5204010009766	942.6646728515625	1388.786254882812	-168.869384765625	922.7337036132812	1272.080688476562	-239.4573822021484	962.8154296875	1076.581909179688	-262.1833801269531	898.8583374023438	1051.394775390625	-209.8685302734375	1073.154296875	877.39306640625	-192.6419982910156	1041.905029296875	854.8641967773438	-265.5289611816406	995.8554077148438	974.9708251953125	-266.4457702636719	1102.97265625	702.1375732421875	-191.3180389404297	1067.394165039062	773.8670043945312	-252.0713958740234	1110.587890625	786.0536499023438	-205.5848999023438	944.52294921875	1384.650390625	144.8742523193359	939.800048828125	1318.006103515625	204.5386962890625	971.0155029296875	1058.931396484375	250.5837860107422	940.8511962890625	1042.166625976562	161.4207305908203	1129.026733398438	867.72314453125	219.7251434326172	1090.559326171875	850.5917358398438	280.3405456542969	1006.890014648438	998.5511474609375	264.0666809082031	1160.683227539062	698.20556640625	227.7014617919922	1166.81298828125	769.4100341796875	242.6844787597656	1109.74462890625	763.2723999023438	281.5237731933594	912.1181030273438	1595.324462890625	65.58303833007812	1058.267456054688	1602.1181640625	-66.39070129394531	1044.768920898438	1610.791259765625	53.66743850708008	913.8325805664062	1583.672119140625	-95.17263031005859	908.6727905273438	968.4039916992188	-201.3660430908203	941.2758178710938	953.3103637695312	156.2348175048828	1069.095336914062	963.2230834960938	91.03610992431641	1028.101196289062	970.1038818359375	-169.1967926025391	1039.677978515625	481.9779968261719	-195.4029998779297	1006.721740722656	616.8767700195312	-204.083251953125	879.1300659179688	51.20482635498047	-183.5183563232422	953.7630615234375	260.4402160644531	-203.9441680908203	1092.416625976562	51.96035003662109	-126.7662048339844	1005.686828613281	41.53287506103516	-196.8821258544922	842.6822509765625	52.74509048461914	-125.7891006469727	1005.947998046875	466.02001953125	116.2505493164062	1028.920288085938	731.6137084960938	140.4312896728516	982.6013793945312	46.29880905151367	67.47739410400391	1022.87548828125	342.1263122558594	94.21249389648438	1159.000244140625	26.44659042358398	-4.408024311065674	1080.410522460938	31.74131202697754	-31.48057556152344	1066.84716796875	38.54331588745117	66.41220855712891	906.51611328125	32.15140151977539	18.28821182250977	848.281982421875	979.7584228515625	50.73303985595703	1015.542419433594	51.69045257568359	-93.43046569824219	nan	nan	nan	nan	nan	nan	
223	2.22	826.4994506835938	972.157470703125	-81.04735565185547	840.2096557617188	1057.413208007812	-6.265809535980225	1084.744262695312	1212.661499023438	-18.29770469665527	838.4352416992188	1158.55810546875	-5.541738986968994	871.78125	1408.344116210938	-10.14929008483887	1029.322509765625	1330.766235351562	-13.382887840271	835.3287963867188	1260.183471679688	58.1204719543457	852.8867797851562	1372.738891601562	-114.0404052734375	938.7819213867188	1388.8427734375	-168.3488616943359	918.9661865234375	1272.198852539062	-239.0167541503906	958.9466552734375	1076.675537109375	-261.8284301757812	895.0359497070312	1051.500122070312	-209.4600067138672	1069.0849609375	877.3135986328125	-192.5646057128906	1037.603393554688	854.7881469726562	-265.37158203125	991.8223876953125	975.0033569335938	-266.1959533691406	1098.42431640625	701.82568359375	-191.0303802490234	1062.931274414062	773.7420043945312	-251.9033050537109	1106.318969726562	785.8995971679688	-205.5566711425781	940.5653076171875	1384.516723632812	145.3299713134766	935.8567504882812	1317.906127929688	205.0001068115234	967.4099731445312	1059.017822265625	251.4288787841797	938.2232666015625	1041.882690429688	162.1500396728516	1125.643798828125	867.9155883789062	222.1811676025391	1086.726196289062	850.869140625	282.5132751464844	1003.121948242188	998.7010498046875	265.3601684570312	1157.468627929688	698.474365234375	230.8299255371094	1163.40380859375	769.7405395507812	245.7118072509766	1106.037109375	763.6104736328125	284.0835266113281	908.412841796875	1595.221923828125	66.55796813964844	1053.33447265625	1601.7626953125	-65.70191955566406	1041.084716796875	1610.843627929688	53.89470291137695	909.1666259765625	1583.620971679688	-94.23643493652344	904.8603515625	968.4168090820312	-200.9855804443359	937.902099609375	953.271240234375	156.6029205322266	1065.674438476562	963.2644653320312	91.29357147216797	1024.272216796875	970.0086059570312	-168.8633117675781	1035.871826171875	481.7136535644531	-194.8420715332031	1003.449584960938	616.7655029296875	-203.2976226806641	865.43408203125	54.72164154052734	-182.2649078369141	944.8864135742188	262.0333251953125	-203.0776519775391	1078.6630859375	52.5819091796875	-126.8421478271484	991.6605834960938	42.94955825805664	-196.3701171875	829.3507690429688	56.78219604492188	-124.3277587890625	1004.182189941406	466.0440673828125	116.56005859375	1026.103515625	731.62939453125	140.77978515625	982.5682983398438	46.21442413330078	67.51205444335938	1021.64501953125	342.2385559082031	94.47710418701172	1158.9970703125	26.42575645446777	-4.362720012664795	1080.399169921875	31.71272850036621	-31.50405502319336	1066.88720703125	38.5977783203125	66.44279479980469	906.563232421875	32.09320068359375	18.37987518310547	844.8135986328125	979.5958862304688	51.18798446655273	1002.244323730469	52.75172805786133	-92.8424072265625	nan	nan	nan	nan	nan	nan	
224	2.23	822.7338256835938	972.05517578125	-80.64692687988281	836.4501953125	1057.247802734375	-5.915703773498535	1080.855102539062	1212.659057617188	-17.90592575073242	834.8377075195312	1158.361083984375	-5.175431251525879	867.6578369140625	1408.143432617188	-9.702389717102051	1025.372802734375	1330.782470703125	-12.97096157073975	831.5096435546875	1259.848388671875	58.41928863525391	848.9557495117188	1372.673828125	-113.6634140014648	934.799560546875	1388.874267578125	-167.8944396972656	915.1535034179688	1272.305297851562	-238.6654968261719	955.041259765625	1076.766235351562	-261.5526733398438	891.183837890625	1051.591796875	-209.1346130371094	1065.057006835938	877.2518920898438	-192.6420593261719	1033.2734375	854.7330322265625	-265.3462829589844	987.7676391601562	975.044189453125	-266.0312194824219	1093.929565429688	701.5228881835938	-190.9273681640625	1058.458129882812	773.6334838867188	-251.8790740966797	1102.078247070312	785.7403564453125	-205.7167816162109	936.4191284179688	1384.367431640625	145.7178344726562	931.7119140625	1317.793212890625	205.3878021240234	963.58935546875	1059.100341796875	252.1990051269531	935.3942260742188	1041.599853515625	162.8321838378906	1122.02294921875	868.08251953125	224.6034088134766	1082.638916015625	851.117431640625	284.6394653320312	999.1416625976562	998.8328857421875	266.6051330566406	1153.987548828125	698.7145385742188	233.9174346923828	1159.752563476562	770.0463256835938	248.7159423828125	1102.065551757812	763.9155883789062	286.5951843261719	904.5215454101562	1595.088134765625	67.44972229003906	1048.2314453125	1601.3701171875	-64.9862060546875	1037.219604492188	1610.8583984375	54.10200500488281	904.3809204101562	1583.5498046875	-93.36646270751953	900.9786376953125	968.388671875	-200.6454620361328	934.3739624023438	953.2244262695312	156.9596710205078	1062.123657226562	963.3009643554688	91.55364990234375	1020.360961914062	969.8514404296875	-168.5361633300781	1031.968139648438	481.3778076171875	-194.3024291992188	1000.1923828125	616.6080322265625	-202.48681640625	850.5325927734375	58.95373916625977	-180.7896728515625	935.3720703125	263.9211120605469	-202.0993347167969	1063.653198242188	52.98567962646484	-126.7655258178711	976.3113403320312	44.62395858764648	-195.7139587402344	814.8350219726562	61.67324829101562	-122.6442337036133	1002.399658203125	466.0697631835938	116.8225173950195	1023.209411621094	731.6138305664062	141.0819854736328	982.5327758789062	46.14056015014648	67.53558349609375	1020.39697265625	342.3578796386719	94.70067596435547	1158.98876953125	26.4113883972168	-4.312775611877441	1080.382934570312	31.67045021057129	-31.57510757446289	1066.9306640625	38.66537857055664	66.46721649169922	906.6293334960938	32.03230285644531	18.48022651672363	841.2076416015625	979.4102172851562	51.582275390625	987.6915893554688	53.97065734863281	-92.12161254882812	nan	nan	nan	nan	nan	nan	
